<?xml version="1.0" encoding="UTF-8" standalone="no"?>
<svg
   xmlns:dc="http://purl.org/dc/elements/1.1/"
   xmlns:cc="http://creativecommons.org/ns#"
   xmlns:rdf="http://www.w3.org/1999/02/22-rdf-syntax-ns#"
   xmlns:svg="http://www.w3.org/2000/svg"
   xmlns="http://www.w3.org/2000/svg"
   viewBox="0 0 377.94666 88.613335"
   height="88.613335"
   width="377.94666"
   xml:space="preserve"
   id="svg2"
   version="1.1"><metadata
     id="metadata8"><rdf:RDF><cc:Work
         rdf:about=""><dc:format>image/svg+xml</dc:format><dc:type
           rdf:resource="http://purl.org/dc/dcmitype/StillImage" /></cc:Work></rdf:RDF></metadata><defs
     id="defs6" /><g
     transform="matrix(1.3333333,0,0,-1.3333333,0,88.613333)"
     id="g10"><g
       transform="scale(0.1)"
       id="g12"><path
         id="path14"
         style="fill:#0a0907;fill-opacity:1;fill-rule:nonzero;stroke:none"
         d="M 100.332,506.176 V 338.473 h 1.113 c 23.184,30.859 51.289,45.234 90.469,45.234 71.641,0 106.406,-47.445 106.406,-119.141 V 91.4023 H 197.969 V 236.441 c 0,33.086 -4.981,67.247 -45.235,67.247 -39.687,0 -52.402,-34.161 -52.402,-67.247 V 91.4023 H 0 V 506.176 h 100.332" /><path
         id="path16"
         style="fill:#0a0907;fill-opacity:1;fill-rule:nonzero;stroke:none"
         d="m 545.371,273.941 c -4.98,27.012 -29.785,44.696 -56.816,44.696 -29.219,0 -53.477,-15.481 -59.571,-44.696 z m 93.184,-57.929 H 427.344 c 0,-40.766 21.523,-62.836 62.89,-62.836 21.504,0 36.934,7.172 47.969,25.902 h 96.504 C 618.691,112.355 555.293,82.0273 490.781,82.0273 c -93.75,0 -163.789,52.9337 -163.789,150.5427 0,94.317 64.492,151.137 156.621,151.137 98.145,0 154.942,-60.684 154.942,-157.191 v -10.504" /><path
         id="path18"
         style="fill:#0a0907;fill-opacity:1;fill-rule:nonzero;stroke:none"
         d="M 768.125,91.4023 H 667.793 V 506.176 H 768.125 V 91.4023" /><path
         id="path20"
         style="fill:#0a0907;fill-opacity:1;fill-rule:nonzero;stroke:none"
         d="m 958.535,229.25 67.285,145.082 h 112.5 L 990.5,91.4023 H 926.523 L 778.203,374.332 H 890.684 L 958.535,229.25" /><path
         id="path22"
         style="fill:#0a0907;fill-opacity:1;fill-rule:nonzero;stroke:none"
         d="m 1331.91,273.941 c -4.94,27.012 -29.76,44.696 -56.77,44.696 -29.24,0 -53.52,-15.481 -59.57,-44.696 z m 93.21,-57.929 h -211.21 c 0,-40.766 21.5,-62.836 62.87,-62.836 21.5,0 36.95,7.172 47.97,25.902 h 96.5 c -15.98,-66.723 -79.41,-97.0507 -143.91,-97.0507 -93.73,0 -163.79,52.9337 -163.79,150.5427 0,94.317 64.54,151.137 156.61,151.137 98.14,0 154.96,-60.684 154.96,-157.191 v -10.504" /><path
         id="path24"
         style="fill:#0a0907;fill-opacity:1;fill-rule:nonzero;stroke:none"
         d="M 1573.13,91.4023 H 1472.77 V 291.555 h -32.53 v 82.777 h 32.53 v 84.898 h 100.36 v -84.898 h 56.79 v -82.777 h -56.79 V 91.4023" /><path
         id="path26"
         style="fill:#0a0907;fill-opacity:1;fill-rule:nonzero;stroke:none"
         d="M 1749.36,91.4023 H 1648.97 V 374.332 h 100.39 z m 6.02,372.2427 c 0,-30.879 -25.3,-56.219 -56.22,-56.219 -30.86,0 -56.25,25.34 -56.25,56.219 0,30.882 25.39,56.25 56.25,56.25 30.92,0 56.22,-25.368 56.22,-56.25" /><path
         id="path28"
         style="fill:#0a0907;fill-opacity:1;fill-rule:nonzero;stroke:none"
         d="m 1882.25,232.57 c 0,-35.84 23.69,-63.394 64.51,-63.394 40.78,0 64.51,27.554 64.51,63.394 0,34.746 -23.73,63.989 -64.51,63.989 -40.82,0 -64.51,-29.243 -64.51,-63.989 z M 2108.34,91.4023 h -100.39 v 31.4457 h -1.07 c -17.68,-28.1449 -52.39,-40.8207 -85.48,-40.8207 -83.84,0 -142.84,70.0387 -142.84,151.1097 0,81.097 57.91,150.57 141.75,150.57 32.5,0 66.68,-12.148 87.64,-36.977 v 27.602 h 100.39 V 91.4023" /><path
         id="path30"
         style="fill:#4e285c;fill-opacity:1;fill-rule:nonzero;stroke:none"
         d="m 2465.9,210.305 -128.8,-33.082 100.09,231.289 129.26,30.816 -100.55,-229.023" /><path
         id="path32"
         style="fill:#6a327a;fill-opacity:1;fill-rule:nonzero;stroke:none"
         d="m 2430.74,636.301 129.8,28.344 52.23,-119.79 -129.4,-29.785 -52.63,121.231" /><path
         id="path34"
         style="fill:#7d4b9b;fill-opacity:1;fill-rule:nonzero;stroke:none"
         d="m 2241.49,193.605 189.25,442.696 52.63,-121.231 -146.27,-337.847 -95.61,16.382" /><path
         id="path36"
         style="fill:#027170;fill-opacity:1;fill-rule:nonzero;stroke:none"
         d="m 2337.1,177.223 128.8,33.082 215.78,-36.035 -128.42,-34.04 -216.16,36.993" /><path
         id="path38"
         style="fill:#02a5b0;fill-opacity:1;fill-rule:nonzero;stroke:none"
         d="m 2606.08,18.082 -408.24,73.3203 43.65,102.2027 311.77,-53.375 52.82,-122.148" /><path
         id="path40"
         style="fill:#cd261e;fill-opacity:1;fill-rule:nonzero;stroke:none"
         d="m 2483.37,515.07 129.4,29.785 L 2834.65,35.9688 2706.83,-0.00390625 2483.37,515.07" /><path
         id="path42"
         style="fill:#ec2824;fill-opacity:1;fill-rule:nonzero;stroke:none"
         d="M 2437.19,408.512 2483.37,515.07 2706.83,-0.00390625 2606.08,18.082 2437.19,408.512" /></g></g></svg>